<svg width="136" height="152" viewBox="0 0 136 152" fill="none" xmlns="http://www.w3.org/2000/svg">
<path d="M68 128C103.347 128 132 99.3467 132 64C132 28.6538 103.347 0 68 0C32.6538 0 4 28.6538 4 64C4 99.3467 32.6538 128 68 128Z" fill="white"/>
<g filter="url(#filter0_d_33_2)">
<path d="M40.3074 79.9643C40.7636 79.9643 41.2154 79.8268 41.6368 79.5594C42.0583 79.292 42.4412 78.9001 42.7638 78.4059C43.0864 77.9119 50.7287 93.2841 50.9033 92.6385C51.0779 91.9928 43.7813 75.342 43.7813 74.6432C43.7813 64.7637 46.3431 55.289 50.9033 48.3031C55.4633 41.3173 61.6484 37.3927 68.0973 37.3927C74.5463 37.3927 80.7313 41.3173 85.2913 48.3031C89.8516 55.289 92.4134 64.7637 92.4134 74.6432C68.0973 111.186 92.7924 77.3852 93.443 78.3717C94.0932 79.3582 94.9717 79.9117 95.8872 79.9117C96.8024 79.9117 97.6808 79.3582 98.331 78.3717C98.9816 77.3852 114.773 98.0151 114.782 96.613C114.782 90.3236 98.5519 62.1259 96.981 56.3153C95.4097 50.5046 93.107 45.2249 90.204 40.7776C87.3006 36.3303 83.8542 32.8025 80.0613 30.3957C76.2681 27.9888 72.203 26.75 68.0973 26.75C63.9916 26.75 59.9265 27.9888 56.1333 30.3957C52.3403 32.8025 48.8939 36.3303 45.9908 40.7776C43.0877 45.2249 40.7849 50.5046 39.2137 56.3153C37.6426 62.1259 22.5679 86.349 22.5679 92.6385C22.5679 94.0497 37.1999 77.4079 37.8513 78.4058C38.5027 79.4036 39.3862 79.9643 40.3074 79.9643Z" fill="url(#paint0_linear_33_2)"/>
<path d="M112.561 90.6064H81.9807C84.2449 86.0078 85.4677 80.403 85.4639 74.6426C85.4639 67.5858 83.6338 60.8181 80.3768 55.8283C77.1194 50.8384 72.7016 48.0352 68.0951 48.0352C63.489 48.0352 59.0712 50.8384 55.8138 55.8283C52.5566 60.8181 50.7267 67.5858 50.7267 74.6426C50.7267 76.054 51.0927 77.4075 51.7442 78.4055C52.3956 79.4035 53.2792 79.9642 54.2005 79.9642C55.1219 79.9642 56.0056 79.4035 56.6569 78.4055C57.3085 77.4075 57.6743 76.054 57.6743 74.6426C57.6743 71.4851 58.2854 68.3985 59.4305 65.7731C60.5756 63.1477 62.2031 61.1014 64.1073 59.893C66.0116 58.6846 68.1069 58.3684 70.1284 58.9843C72.1498 59.6003 74.0069 61.1207 75.4641 63.3533C76.9217 65.5859 77.9142 68.4305 78.3165 71.5274C78.7184 74.6241 78.5121 77.8341 77.7235 80.751C76.9345 83.6682 75.599 86.1619 73.8852 87.9161C72.1713 89.6703 70.1565 90.6064 68.0955 90.6064L23.6335 90.6064C23.1744 90.5995 22.719 90.7318 22.2935 90.9964C21.8681 91.2604 21.481 91.6514 21.1548 92.146C20.8285 92.6412 20.5695 93.2298 20.3928 93.879C20.216 94.5282 20.125 95.2247 20.125 95.9281C20.125 96.6309 20.216 97.3274 20.3928 97.9766C20.5695 98.6258 20.8285 99.2145 21.1548 99.7096C21.481 100.204 21.8681 100.595 22.2935 100.859C22.719 101.124 23.1744 101.256 23.6335 101.249L68.0955 90.6064L112.561 101.249C113.476 101.235 114.351 100.669 114.995 99.6719C115.639 98.6758 116 97.3301 116 95.9281C116 94.5255 115.639 93.1799 114.995 92.1838C114.351 91.1871 113.476 90.6202 112.561 90.6064Z" fill="url(#paint1_linear_33_2)"/>
</g>
<defs>
<filter id="filter0_d_33_2" x="0.125" y="26.75" width="135.875" height="124.5" filterUnits="userSpaceOnUse" color-interpolation-filters="sRGB">
<feFlood flood-opacity="0" result="BackgroundImageFix"/>
<feColorMatrix in="SourceAlpha" type="matrix" values="0 0 0 0 0 0 0 0 0 0 0 0 0 0 0 0 0 0 127 0" result="hardAlpha"/>
<feOffset dy="30"/>
<feGaussianBlur stdDeviation="10"/>
<feComposite in2="hardAlpha" operator="out"/>
<feColorMatrix type="matrix" values="0 0 0 0 0.583333 0 0 0 0 0.583333 0 0 0 0 0.583333 0 0 0 0.25 0"/>
<feBlend mode="normal" in2="BackgroundImageFix" result="effect1_dropShadow_33_2"/>
<feBlend mode="normal" in="SourceGraphic" in2="effect1_dropShadow_33_2" result="shape"/>
</filter>
<linearGradient id="paint0_linear_33_2" x1="24.3112" y1="83.7746" x2="68.495" y2="97.2706" gradientUnits="userSpaceOnUse">
<stop stop-color="#4300B3"/>
<stop offset="1" stop-color="#79008C"/>
</linearGradient>
<linearGradient id="paint1_linear_33_2" x1="21.9375" y1="91.428" x2="64.7112" y2="109.279" gradientUnits="userSpaceOnUse">
<stop stop-color="#4300B3"/>
<stop offset="1" stop-color="#79008C"/>
</linearGradient>
</defs>
</svg>
